# xmcd
#
# Track frame offsets:
#	150
#	15400
#	32480
#	50080
#	61782
#	77297
#	95032
#	110720
#	133187
#	145150
#	165067
#	185262
#
# Disc length: 2886 seconds
#
# Revision: 1
# Processed by: cddbd v1.4PL0 Copyright (c) Steve Scherf et al.
# Submitted via: audiograbber 1.81.03
#
DISCID=900b440c
DTITLE=Mal Eastick - Spirit
DYEAR=2001
DGENRE=Blues
TTITLE0=Jungle Funk
TTITLE1=Heavy Heart
TTITLE2=Another Man
TTITLE3=The E St Shuffle
TTITLE4=Talkin Bout My Baby
TTITLE5=Love So Strong
TTITLE6=The Gringo Swing
TTITLE7=Lost in the City
TTITLE8=Blues for Aaron
TTITLE9=Bye Bye Baby
TTITLE10=I'll Never Be Back
TTITLE11=Swept Away
EXTD=
EXTT0=
EXTT1=
EXTT2=
EXTT3=
EXTT4=
EXTT5=
EXTT6=
EXTT7=
EXTT8=
EXTT9=
EXTT10=
EXTT11=
PLAYORDER=
